<svg width="14" height="14" viewBox="0 0 14 14" fill="none" xmlns="http://www.w3.org/2000/svg">
<mask id="mask0_101_185" style="mask-type:alpha" maskUnits="userSpaceOnUse" x="0" y="0" width="14" height="14">
<rect width="14" height="14" fill="#D9D9D9"/>
</mask>
<g mask="url(#mask0_101_185)">
<path d="M4.08334 12.25C3.7625 12.25 3.48785 12.1358 3.25938 11.9073C3.03091 11.6788 2.91667 11.4042 2.91667 11.0833V3.5H2.33334V2.33333H5.25V1.75H8.75V2.33333H11.6667V3.5H11.0833V11.0833C11.0833 11.4042 10.9691 11.6788 10.7406 11.9073C10.5122 12.1358 10.2375 12.25 9.91667 12.25H4.08334ZM9.91667 3.5H4.08334V11.0833H9.91667V3.5ZM5.25 9.91667H6.41667V4.66667H5.25V9.91667ZM7.58334 9.91667H8.75V4.66667H7.58334V9.91667Z" fill="#DEDEDE"/>
</g>
</svg>
