<svg width="14" height="14" viewBox="0 0 14 14" fill="none" xmlns="http://www.w3.org/2000/svg">
<mask id="mask0_101_182" style="mask-type:alpha" maskUnits="userSpaceOnUse" x="0" y="0" width="14" height="14">
<rect width="14" height="14" fill="#D9D9D9"/>
</mask>
<g mask="url(#mask0_101_182)">
<path d="M2.91667 12.8334C2.59583 12.8334 2.32118 12.7191 2.09271 12.4906C1.86424 12.2622 1.75 11.9875 1.75 11.6667V3.50002C1.75 3.17919 1.86424 2.90453 2.09271 2.67606C2.32118 2.44759 2.59583 2.33335 2.91667 2.33335H3.5V1.16669H4.66667V2.33335H9.33333V1.16669H10.5V2.33335H11.0833C11.4042 2.33335 11.6788 2.44759 11.9073 2.67606C12.1358 2.90453 12.25 3.17919 12.25 3.50002V7.00002H11.0833V5.83335H2.91667V11.6667H7V12.8334H2.91667ZM12.9062 9.91669L11.6667 8.6771L12.0896 8.25419C12.1965 8.14724 12.3326 8.09377 12.4979 8.09377C12.6632 8.09377 12.7993 8.14724 12.9062 8.25419L13.3292 8.6771C13.4361 8.78405 13.4896 8.92016 13.4896 9.08544C13.4896 9.25071 13.4361 9.38683 13.3292 9.49377L12.9062 9.91669ZM8.16667 13.4167V12.1771L11.2583 9.08544L12.4979 10.325L9.40625 13.4167H8.16667ZM2.91667 4.66669H11.0833V3.50002H2.91667V4.66669Z" fill="#DEDEDE"/>
</g>
</svg>
