<svg width="24" height="24" viewBox="0 0 24 24" fill="none" xmlns="http://www.w3.org/2000/svg">
<mask id="mask0_505_15" style="mask-type:alpha" maskUnits="userSpaceOnUse" x="0" y="0" width="24" height="24">
<rect width="24" height="24" fill="#D9D9D9"/>
</mask>
<g mask="url(#mask0_505_15)">
<path d="M11.9324 19.4237L12 19.4858L12.0676 19.4237C14.1043 17.5539 15.6194 15.8515 16.609 14.3167C17.5976 12.7835 18.1 11.4103 18.1 10.2C18.1 8.35998 17.5124 6.846 16.3332 5.66679C15.1556 4.48913 13.709 3.9 12 3.9C10.291 3.9 8.84445 4.48913 7.66679 5.66679C6.48757 6.846 5.9 8.35998 5.9 10.2C5.9 11.4103 6.40236 12.7835 7.39096 14.3167C8.38064 15.8515 9.89566 17.5539 11.9324 19.4237ZM13.3418 11.3418C12.9687 11.7149 12.5233 11.9 12 11.9C11.4767 11.9 11.0313 11.7149 10.6582 11.3418C10.2851 10.9687 10.1 10.5233 10.1 10C10.1 9.47673 10.2851 9.03127 10.6582 8.65821C11.0313 8.28515 11.4767 8.1 12 8.1C12.5233 8.1 12.9687 8.28515 13.3418 8.65821C13.7149 9.03127 13.9 9.47673 13.9 10C13.9 10.5233 13.7149 10.9687 13.3418 11.3418ZM12 21.8686C9.35312 19.6097 7.37778 17.5139 6.07032 15.5815C4.75202 13.633 4.1 11.8399 4.1 10.2C4.1 7.72354 4.89551 5.76013 6.4803 4.29851C8.07085 2.83158 9.90938 2.1 12 2.1C14.0906 2.1 15.9292 2.83158 17.5197 4.29851C19.1045 5.76013 19.9 7.72354 19.9 10.2C19.9 11.8399 19.248 13.633 17.9297 15.5815C16.6222 17.5139 14.6469 19.6097 12 21.8686Z" fill="#FFEA00" stroke="black" stroke-width="0.2"/>
</g>
</svg>
