<svg width="307" height="134" viewBox="0 0 307 134" fill="none" xmlns="http://www.w3.org/2000/svg">
<mask id="path-1-outside-1_126_24" maskUnits="userSpaceOnUse" x="0.148438" y="10.9453" width="102" height="117" fill="black">
<rect fill="white" x="0.148438" y="10.9453" width="102" height="117"/>
<path d="M56.4297 30.7773V43.0078H3.14844V30.7773H22.2812V16.9727H37.5391V30.7773H56.4297ZM30.0312 47.9727C44.0781 47.9727 54.1289 58.8711 54.25 74.1289C54.1289 89.5078 44.0781 100.406 30.0312 100.406C15.9844 100.406 5.69141 89.5078 5.69141 74.1289C5.69141 58.8711 15.9844 47.9727 30.0312 47.9727ZM30.0312 60.8086C23.6133 60.8086 19.2539 65.7734 19.2539 74.1289C19.2539 82.4844 23.6133 87.3281 30.0312 87.3281C36.207 87.3281 40.5664 82.4844 40.6875 74.1289C40.5664 65.7734 36.207 60.8086 30.0312 60.8086ZM98.5703 13.9453V124.141H83.918V71.1016H74.957V119.418H60.5469V16.125H74.957V58.75H83.918V13.9453H98.5703Z"/>
</mask>
<path d="M56.4297 30.7773V43.0078H3.14844V30.7773H22.2812V16.9727H37.5391V30.7773H56.4297ZM30.0312 47.9727C44.0781 47.9727 54.1289 58.8711 54.25 74.1289C54.1289 89.5078 44.0781 100.406 30.0312 100.406C15.9844 100.406 5.69141 89.5078 5.69141 74.1289C5.69141 58.8711 15.9844 47.9727 30.0312 47.9727ZM30.0312 60.8086C23.6133 60.8086 19.2539 65.7734 19.2539 74.1289C19.2539 82.4844 23.6133 87.3281 30.0312 87.3281C36.207 87.3281 40.5664 82.4844 40.6875 74.1289C40.5664 65.7734 36.207 60.8086 30.0312 60.8086ZM98.5703 13.9453V124.141H83.918V71.1016H74.957V119.418H60.5469V16.125H74.957V58.75H83.918V13.9453H98.5703Z" fill="white"/>
<path d="M56.4297 30.7773V43.0078H3.14844V30.7773H22.2812V16.9727H37.5391V30.7773H56.4297ZM30.0312 47.9727C44.0781 47.9727 54.1289 58.8711 54.25 74.1289C54.1289 89.5078 44.0781 100.406 30.0312 100.406C15.9844 100.406 5.69141 89.5078 5.69141 74.1289C5.69141 58.8711 15.9844 47.9727 30.0312 47.9727ZM30.0312 60.8086C23.6133 60.8086 19.2539 65.7734 19.2539 74.1289C19.2539 82.4844 23.6133 87.3281 30.0312 87.3281C36.207 87.3281 40.5664 82.4844 40.6875 74.1289C40.5664 65.7734 36.207 60.8086 30.0312 60.8086ZM98.5703 13.9453V124.141H83.918V71.1016H74.957V119.418H60.5469V16.125H74.957V58.75H83.918V13.9453H98.5703Z" stroke="#303030" stroke-width="6" mask="url(#path-1-outside-1_126_24)"/>
<mask id="path-2-outside-2_126_24" maskUnits="userSpaceOnUse" x="12.1484" y="0.945312" width="102" height="117" fill="black">
<rect fill="white" x="12.1484" y="0.945312" width="102" height="117"/>
<path d="M68.4297 20.7773V33.0078H15.1484V20.7773H34.2812V6.97266H49.5391V20.7773H68.4297ZM42.0312 37.9727C56.0781 37.9727 66.1289 48.8711 66.25 64.1289C66.1289 79.5078 56.0781 90.4062 42.0312 90.4062C27.9844 90.4062 17.6914 79.5078 17.6914 64.1289C17.6914 48.8711 27.9844 37.9727 42.0312 37.9727ZM42.0312 50.8086C35.6133 50.8086 31.2539 55.7734 31.2539 64.1289C31.2539 72.4844 35.6133 77.3281 42.0312 77.3281C48.207 77.3281 52.5664 72.4844 52.6875 64.1289C52.5664 55.7734 48.207 50.8086 42.0312 50.8086ZM110.57 3.94531V114.141H95.918V61.1016H86.957V109.418H72.5469V6.125H86.957V48.75H95.918V3.94531H110.57Z"/>
</mask>
<path d="M68.4297 20.7773V33.0078H15.1484V20.7773H34.2812V6.97266H49.5391V20.7773H68.4297ZM42.0312 37.9727C56.0781 37.9727 66.1289 48.8711 66.25 64.1289C66.1289 79.5078 56.0781 90.4062 42.0312 90.4062C27.9844 90.4062 17.6914 79.5078 17.6914 64.1289C17.6914 48.8711 27.9844 37.9727 42.0312 37.9727ZM42.0312 50.8086C35.6133 50.8086 31.2539 55.7734 31.2539 64.1289C31.2539 72.4844 35.6133 77.3281 42.0312 77.3281C48.207 77.3281 52.5664 72.4844 52.6875 64.1289C52.5664 55.7734 48.207 50.8086 42.0312 50.8086ZM110.57 3.94531V114.141H95.918V61.1016H86.957V109.418H72.5469V6.125H86.957V48.75H95.918V3.94531H110.57Z" fill="#303030"/>
<path d="M68.4297 20.7773V33.0078H15.1484V20.7773H34.2812V6.97266H49.5391V20.7773H68.4297ZM42.0312 37.9727C56.0781 37.9727 66.1289 48.8711 66.25 64.1289C66.1289 79.5078 56.0781 90.4062 42.0312 90.4062C27.9844 90.4062 17.6914 79.5078 17.6914 64.1289C17.6914 48.8711 27.9844 37.9727 42.0312 37.9727ZM42.0312 50.8086C35.6133 50.8086 31.2539 55.7734 31.2539 64.1289C31.2539 72.4844 35.6133 77.3281 42.0312 77.3281C48.207 77.3281 52.5664 72.4844 52.6875 64.1289C52.5664 55.7734 48.207 50.8086 42.0312 50.8086ZM110.57 3.94531V114.141H95.918V61.1016H86.957V109.418H72.5469V6.125H86.957V48.75H95.918V3.94531H110.57Z" stroke="white" stroke-width="6" mask="url(#path-2-outside-2_126_24)"/>
<path d="M126.25 54.0938C137.109 54.0938 144.922 63.9375 145 79.4062C144.922 95.0312 137.109 104.797 126.25 104.797C115.391 104.797 107.422 95.0312 107.5 79.4062C107.422 63.9375 115.391 54.0938 126.25 54.0938ZM126.25 63.0781C120.781 63.0781 117.109 68.8594 117.109 79.4062C117.109 90.0312 120.781 95.7344 126.25 95.7344C131.797 95.7344 135.391 90.0312 135.469 79.4062C135.391 68.8594 131.797 63.0781 126.25 63.0781ZM173.281 65.5781V73.9375H163.203V86.5938H173.281V94.7188H163.203V120.188H153.203V49.0938H163.203V65.5781H173.281Z" fill="#303030"/>
<path d="M232.656 48.9375V64.4062H242.266V72.375H232.656V87.4531H222.656V48.9375H232.656ZM232.656 90.3438V108.312H195.391V112.375H234.687V119.719H185.625V101.516H222.734V97.5312H185.469V90.3438H232.656ZM218.437 54.4062V61.9844H176.25V54.4062H192.422V48.625H202.344V54.4062H218.437ZM197.344 63.7031C207.969 63.7031 214.844 68.2344 214.844 75.3438C214.844 82.6094 207.969 86.9844 197.344 86.9844C186.719 86.9844 179.687 82.6094 179.687 75.3438C179.687 68.2344 186.719 63.7031 197.344 63.7031ZM197.344 70.7344C192.422 70.7344 189.375 72.375 189.453 75.3438C189.375 78.3906 192.422 79.875 197.344 79.875C202.266 79.875 205.391 78.3906 205.391 75.3438C205.391 72.375 202.266 70.7344 197.344 70.7344Z" fill="#303030"/>
<path d="M265.625 51.2031C276.406 51.2031 284.609 57.9219 284.609 67.4531C284.609 76.8281 276.406 83.625 265.625 83.625C254.609 83.625 246.484 76.8281 246.484 67.4531C246.484 57.9219 254.609 51.2031 265.625 51.2031ZM265.625 59.3281C260.156 59.3281 256.094 62.2969 256.172 67.4531C256.094 72.5312 260.156 75.5781 265.625 75.5781C271.016 75.5781 275 72.5312 275 67.4531C275 62.2969 271.016 59.3281 265.625 59.3281ZM304.922 49.0938V84.7188H294.922V49.0938H304.922ZM304.922 87.6875V106.984H267.109V111.594H306.875V119.406H257.344V99.7188H295V95.3438H257.187V87.6875H304.922Z" fill="#303030"/>
<mask id="path-4-outside-3_126_24" maskUnits="userSpaceOnUse" x="94.4994" y="55.625" width="206" height="78" fill="black">
<rect fill="white" x="94.4994" y="55.625" width="206" height="78"/>
<path d="M116.25 64.0938C127.109 64.0938 134.922 73.9375 135 89.4062C134.922 105.031 127.109 114.797 116.25 114.797C105.391 114.797 97.4219 105.031 97.5 89.4062C97.4219 73.9375 105.391 64.0938 116.25 64.0938ZM116.25 73.0781C110.781 73.0781 107.109 78.8594 107.109 89.4062C107.109 100.031 110.781 105.734 116.25 105.734C121.797 105.734 125.391 100.031 125.469 89.4062C125.391 78.8594 121.797 73.0781 116.25 73.0781ZM163.281 75.5781V83.9375H153.203V96.5938H163.281V104.719H153.203V130.188H143.203V59.0938H153.203V75.5781H163.281Z"/>
<path d="M222.656 58.9375V74.4062H232.266V82.375H222.656V97.4531H212.656V58.9375H222.656ZM222.656 100.344V118.312H185.391V122.375H224.688V129.719H175.625V111.516H212.734V107.531H175.469V100.344H222.656ZM208.438 64.4062V71.9844H166.25V64.4062H182.422V58.625H192.344V64.4062H208.438ZM187.344 73.7031C197.969 73.7031 204.844 78.2344 204.844 85.3438C204.844 92.6094 197.969 96.9844 187.344 96.9844C176.719 96.9844 169.688 92.6094 169.688 85.3438C169.688 78.2344 176.719 73.7031 187.344 73.7031ZM187.344 80.7344C182.422 80.7344 179.375 82.375 179.453 85.3438C179.375 88.3906 182.422 89.875 187.344 89.875C192.266 89.875 195.391 88.3906 195.391 85.3438C195.391 82.375 192.266 80.7344 187.344 80.7344Z"/>
<path d="M255.625 61.2031C266.406 61.2031 274.609 67.9219 274.609 77.4531C274.609 86.8281 266.406 93.625 255.625 93.625C244.609 93.625 236.484 86.8281 236.484 77.4531C236.484 67.9219 244.609 61.2031 255.625 61.2031ZM255.625 69.3281C250.156 69.3281 246.094 72.2969 246.172 77.4531C246.094 82.5312 250.156 85.5781 255.625 85.5781C261.016 85.5781 265 82.5312 265 77.4531C265 72.2969 261.016 69.3281 255.625 69.3281ZM294.922 59.0938V94.7188H284.922V59.0938H294.922ZM294.922 97.6875V116.984H257.109V121.594H296.875V129.406H247.344V109.719H285V105.344H247.188V97.6875H294.922Z"/>
</mask>
<path d="M116.25 64.0938C127.109 64.0938 134.922 73.9375 135 89.4062C134.922 105.031 127.109 114.797 116.25 114.797C105.391 114.797 97.4219 105.031 97.5 89.4062C97.4219 73.9375 105.391 64.0938 116.25 64.0938ZM116.25 73.0781C110.781 73.0781 107.109 78.8594 107.109 89.4062C107.109 100.031 110.781 105.734 116.25 105.734C121.797 105.734 125.391 100.031 125.469 89.4062C125.391 78.8594 121.797 73.0781 116.25 73.0781ZM163.281 75.5781V83.9375H153.203V96.5938H163.281V104.719H153.203V130.188H143.203V59.0938H153.203V75.5781H163.281Z" fill="white"/>
<path d="M222.656 58.9375V74.4062H232.266V82.375H222.656V97.4531H212.656V58.9375H222.656ZM222.656 100.344V118.312H185.391V122.375H224.688V129.719H175.625V111.516H212.734V107.531H175.469V100.344H222.656ZM208.438 64.4062V71.9844H166.25V64.4062H182.422V58.625H192.344V64.4062H208.438ZM187.344 73.7031C197.969 73.7031 204.844 78.2344 204.844 85.3438C204.844 92.6094 197.969 96.9844 187.344 96.9844C176.719 96.9844 169.688 92.6094 169.688 85.3438C169.688 78.2344 176.719 73.7031 187.344 73.7031ZM187.344 80.7344C182.422 80.7344 179.375 82.375 179.453 85.3438C179.375 88.3906 182.422 89.875 187.344 89.875C192.266 89.875 195.391 88.3906 195.391 85.3438C195.391 82.375 192.266 80.7344 187.344 80.7344Z" fill="white"/>
<path d="M255.625 61.2031C266.406 61.2031 274.609 67.9219 274.609 77.4531C274.609 86.8281 266.406 93.625 255.625 93.625C244.609 93.625 236.484 86.8281 236.484 77.4531C236.484 67.9219 244.609 61.2031 255.625 61.2031ZM255.625 69.3281C250.156 69.3281 246.094 72.2969 246.172 77.4531C246.094 82.5312 250.156 85.5781 255.625 85.5781C261.016 85.5781 265 82.5312 265 77.4531C265 72.2969 261.016 69.3281 255.625 69.3281ZM294.922 59.0938V94.7188H284.922V59.0938H294.922ZM294.922 97.6875V116.984H257.109V121.594H296.875V129.406H247.344V109.719H285V105.344H247.188V97.6875H294.922Z" fill="white"/>
<path d="M116.25 64.0938C127.109 64.0938 134.922 73.9375 135 89.4062C134.922 105.031 127.109 114.797 116.25 114.797C105.391 114.797 97.4219 105.031 97.5 89.4062C97.4219 73.9375 105.391 64.0938 116.25 64.0938ZM116.25 73.0781C110.781 73.0781 107.109 78.8594 107.109 89.4062C107.109 100.031 110.781 105.734 116.25 105.734C121.797 105.734 125.391 100.031 125.469 89.4062C125.391 78.8594 121.797 73.0781 116.25 73.0781ZM163.281 75.5781V83.9375H153.203V96.5938H163.281V104.719H153.203V130.188H143.203V59.0938H153.203V75.5781H163.281Z" stroke="#303030" stroke-width="6" mask="url(#path-4-outside-3_126_24)"/>
<path d="M222.656 58.9375V74.4062H232.266V82.375H222.656V97.4531H212.656V58.9375H222.656ZM222.656 100.344V118.312H185.391V122.375H224.688V129.719H175.625V111.516H212.734V107.531H175.469V100.344H222.656ZM208.438 64.4062V71.9844H166.25V64.4062H182.422V58.625H192.344V64.4062H208.438ZM187.344 73.7031C197.969 73.7031 204.844 78.2344 204.844 85.3438C204.844 92.6094 197.969 96.9844 187.344 96.9844C176.719 96.9844 169.688 92.6094 169.688 85.3438C169.688 78.2344 176.719 73.7031 187.344 73.7031ZM187.344 80.7344C182.422 80.7344 179.375 82.375 179.453 85.3438C179.375 88.3906 182.422 89.875 187.344 89.875C192.266 89.875 195.391 88.3906 195.391 85.3438C195.391 82.375 192.266 80.7344 187.344 80.7344Z" stroke="#303030" stroke-width="6" mask="url(#path-4-outside-3_126_24)"/>
<path d="M255.625 61.2031C266.406 61.2031 274.609 67.9219 274.609 77.4531C274.609 86.8281 266.406 93.625 255.625 93.625C244.609 93.625 236.484 86.8281 236.484 77.4531C236.484 67.9219 244.609 61.2031 255.625 61.2031ZM255.625 69.3281C250.156 69.3281 246.094 72.2969 246.172 77.4531C246.094 82.5312 250.156 85.5781 255.625 85.5781C261.016 85.5781 265 82.5312 265 77.4531C265 72.2969 261.016 69.3281 255.625 69.3281ZM294.922 59.0938V94.7188H284.922V59.0938H294.922ZM294.922 97.6875V116.984H257.109V121.594H296.875V129.406H247.344V109.719H285V105.344H247.188V97.6875H294.922Z" stroke="#303030" stroke-width="6" mask="url(#path-4-outside-3_126_24)"/>
<circle cx="134" cy="33" r="10" fill="#FFE500"/>
<circle cx="127" cy="39" r="10" fill="#C95106"/>
</svg>
