<svg width="14" height="14" viewBox="0 0 14 14" fill="none" xmlns="http://www.w3.org/2000/svg">
<mask id="mask0_101_119" style="mask-type:alpha" maskUnits="userSpaceOnUse" x="0" y="0" width="14" height="14">
<rect width="14" height="14" fill="#D9D9D9"/>
</mask>
<g mask="url(#mask0_101_119)">
<path d="M7.56884 12.8042V11.6375C7.97717 11.5792 8.37335 11.4674 8.75738 11.3021C9.14141 11.1368 9.50356 10.9278 9.84384 10.675L10.6897 11.5209C10.2327 11.8806 9.74175 12.1698 9.21675 12.3886C8.69175 12.6073 8.14245 12.7459 7.56884 12.8042ZM11.5063 10.675L10.6897 9.85836C10.9424 9.53753 11.1466 9.1851 11.3022 8.80107C11.4577 8.41704 11.5647 8.01114 11.623 7.58336H12.8188C12.7411 8.18614 12.5928 8.7476 12.374 9.26774C12.1553 9.78788 11.8661 10.257 11.5063 10.675ZM11.623 6.41669C11.5647 5.97919 11.4577 5.56843 11.3022 5.1844C11.1466 4.80038 10.9424 4.45281 10.6897 4.1417L11.5063 3.32503C11.8758 3.75281 12.1747 4.22919 12.4032 4.75419C12.6317 5.27919 12.7702 5.83336 12.8188 6.41669H11.623ZM6.40217 12.8042C4.91467 12.6292 3.67266 11.9924 2.67613 10.8938C1.6796 9.79517 1.18134 8.49725 1.18134 7.00003C1.18134 5.49308 1.6796 4.19031 2.67613 3.0917C3.67266 1.99308 4.91467 1.36114 6.40217 1.19586V2.36253C5.2355 2.52781 4.26814 3.04795 3.50009 3.92295C2.73203 4.79795 2.348 5.82364 2.348 7.00003C2.348 8.17642 2.73203 9.19968 3.50009 10.0698C4.26814 10.94 5.2355 11.4625 6.40217 11.6375V12.8042ZM9.873 3.32503C9.523 3.06253 9.15356 2.84864 8.76467 2.68336C8.37578 2.51808 7.97717 2.41114 7.56884 2.36253V1.19586C8.14245 1.24447 8.69175 1.37815 9.21675 1.5969C9.74175 1.81565 10.2327 2.10975 10.6897 2.4792L9.873 3.32503ZM7.00009 9.91669C6.4362 9.44031 5.90634 8.92989 5.4105 8.38544C4.91467 7.841 4.66675 7.2042 4.66675 6.47503C4.66675 5.81392 4.89279 5.25003 5.34488 4.78336C5.79696 4.31669 6.3487 4.08336 7.00009 4.08336C7.65147 4.08336 8.20321 4.31669 8.65529 4.78336C9.10738 5.25003 9.33342 5.81392 9.33342 6.47503C9.33342 7.2042 9.0855 7.841 8.58967 8.38544C8.09384 8.92989 7.56397 9.44031 7.00009 9.91669ZM7.00009 7.00003C7.17509 7.00003 7.32335 6.93926 7.44488 6.81774C7.56641 6.69621 7.62717 6.54795 7.62717 6.37294C7.62717 6.20767 7.56641 6.06183 7.44488 5.93544C7.32335 5.80906 7.17509 5.74586 7.00009 5.74586C6.82509 5.74586 6.67682 5.80906 6.55529 5.93544C6.43377 6.06183 6.373 6.20767 6.373 6.37294C6.373 6.54795 6.43377 6.69621 6.55529 6.81774C6.67682 6.93926 6.82509 7.00003 7.00009 7.00003Z" fill="#DEDEDE"/>
</g>
</svg>
