<svg width="18" height="18" viewBox="0 0 18 18" fill="none" xmlns="http://www.w3.org/2000/svg">
<mask id="mask0_6_798" style="mask-type:alpha" maskUnits="userSpaceOnUse" x="0" y="0" width="18" height="18">
<rect width="18" height="18" fill="#D9D9D9"/>
</mask>
<g mask="url(#mask0_6_798)">
<path d="M6.75 15L5.7 13.95L7.0125 12.6C5.4125 12.3875 4.09375 11.95 3.05625 11.2875C2.01875 10.625 1.5 9.8625 1.5 9C1.5 7.9625 2.22187 7.07812 3.66563 6.34687C5.10938 5.61562 6.8875 5.25 9 5.25C11.1125 5.25 12.8906 5.61562 14.3344 6.34687C15.7781 7.07812 16.5 7.9625 16.5 9C16.5 9.775 16.0844 10.4688 15.2531 11.0813C14.4219 11.6937 13.3375 12.15 12 12.45V10.9125C12.9625 10.6625 13.7031 10.3531 14.2219 9.98438C14.7406 9.61562 15 9.2875 15 9C15 8.6 14.4656 8.125 13.3969 7.575C12.3281 7.025 10.8625 6.75 9 6.75C7.1375 6.75 5.67188 7.025 4.60313 7.575C3.53438 8.125 3 8.6 3 9C3 9.3 3.31875 9.65938 3.95625 10.0781C4.59375 10.4969 5.5 10.8125 6.675 11.025L5.7 10.05L6.75 9L9.75 12L6.75 15Z" fill="#DEDEDE"/>
</g>
</svg>
